<svg width="300" height="200" xmlns="http://www.w3.org/2000/svg">
  <defs>
    <linearGradient id="comboBg" x1="0%" y1="0%" x2="100%" y2="100%">
      <stop offset="0%" style="stop-color:#fff3e0;stop-opacity:1" />
      <stop offset="100%" style="stop-color:#ffe0b2;stop-opacity:1" />
    </linearGradient>
  </defs>
  <rect width="300" height="200" fill="url(#comboBg)"/>
  <!-- Bread slices -->
  <rect x="50" y="60" width="40" height="25" rx="5" fill="#deb887"/>
  <rect x="210" y="65" width="40" height="25" rx="5" fill="#deb887"/>
  <!-- Russians/sausages -->
  <ellipse cx="120" cy="90" rx="25" ry="8" fill="#8b4513"/>
  <ellipse cx="150" cy="85" rx="25" ry="8" fill="#8b4513"/>
  <ellipse cx="180" cy="90" rx="25" ry="8" fill="#8b4513"/>
  <!-- Chips pile -->
  <rect x="80" y="110" width="8" height="30" fill="#ffd700" transform="rotate(15 84 125)"/>
  <rect x="90" y="115" width="8" height="25" fill="#ffd700" transform="rotate(-10 94 127)"/>
  <rect x="100" y="112" width="8" height="28" fill="#ffd700" transform="rotate(25 104 126)"/>
  <rect x="110" y="118" width="8" height="22" fill="#ffd700" transform="rotate(-5 114 129)"/>
  <rect x="180" y="110" width="8" height="30" fill="#ffd700" transform="rotate(20 184 125)"/>
  <rect x="190" y="115" width="8" height="25" fill="#ffd700" transform="rotate(-15 194 127)"/>
  <rect x="200" y="112" width="8" height="28" fill="#ffd700" transform="rotate(10 204 126)"/>
  <!-- Polony slices -->
  <circle cx="130" cy="105" r="8" fill="#ff69b4" opacity="0.8"/>
  <circle cx="170" cy="107" r="8" fill="#ff69b4" opacity="0.8"/>
  <text x="150" y="185" text-anchor="middle" font-family="Arial" font-size="14" font-weight="bold" fill="#d84315">Buroko Combo</text>
</svg>
